<svg xmlns="http://www.w3.org/2000/svg" xmlns:xlink="http://www.w3.org/1999/xlink" width="1000" zoomAndPan="magnify" viewBox="0 0 750 749.999995" height="1000" preserveAspectRatio="xMidYMid meet" version="1.0"><defs><g/><clipPath id="addb49066e"><rect x="0" width="435" y="0" height="702"/></clipPath><clipPath id="48d770b9b8"><rect x="0" width="327" y="0" height="702"/></clipPath></defs><g transform="matrix(1, 0, 0, 1, 105, 25)"><g clip-path="url(#addb49066e)"><g fill="#a6a6a6" fill-opacity="0.302"><g transform="translate(-39.744068, 507.777081)"><g><path d="M 371.5625 0 L 272.71875 0 L 113.15625 -277.484375 L 110.890625 -277.484375 C 114.066406 -228.472656 115.65625 -193.515625 115.65625 -172.609375 L 115.65625 0 L 46.15625 0 L 46.15625 -366.796875 L 144.265625 -366.796875 L 303.578125 -92.078125 L 305.328125 -92.078125 C 302.816406 -139.742188 301.5625 -173.445312 301.5625 -193.1875 L 301.5625 -366.796875 L 371.5625 -366.796875 Z M 371.5625 0 "/></g></g></g><g fill="#a6a6a6" fill-opacity="0.502"><g transform="translate(-14.097277, 527.103324)"><g><path d="M 371.5625 0 L 272.71875 0 L 113.15625 -277.484375 L 110.890625 -277.484375 C 114.066406 -228.472656 115.65625 -193.515625 115.65625 -172.609375 L 115.65625 0 L 46.15625 0 L 46.15625 -366.796875 L 144.265625 -366.796875 L 303.578125 -92.078125 L 305.328125 -92.078125 C 302.816406 -139.742188 301.5625 -173.445312 301.5625 -193.1875 L 301.5625 -366.796875 L 371.5625 -366.796875 Z M 371.5625 0 "/></g></g></g><g fill="#a6a6a6" fill-opacity="1"><g transform="translate(11.549514, 546.429567)"><g><path d="M 371.5625 0 L 272.71875 0 L 113.15625 -277.484375 L 110.890625 -277.484375 C 114.066406 -228.472656 115.65625 -193.515625 115.65625 -172.609375 L 115.65625 0 L 46.15625 0 L 46.15625 -366.796875 L 144.265625 -366.796875 L 303.578125 -92.078125 L 305.328125 -92.078125 C 302.816406 -139.742188 301.5625 -173.445312 301.5625 -193.1875 L 301.5625 -366.796875 L 371.5625 -366.796875 Z M 371.5625 0 "/></g></g></g></g></g><g transform="matrix(1, 0, 0, 1, 364, 25)"><g clip-path="url(#48d770b9b8)"><g fill="#34386b" fill-opacity="1"><g transform="translate(0.328569, 546.429567)"><g><path d="M 123.9375 -194.1875 L 149.53125 -194.1875 C 173.445312 -194.1875 191.34375 -198.910156 203.21875 -208.359375 C 215.09375 -217.804688 221.03125 -231.5625 221.03125 -249.625 C 221.03125 -267.863281 216.050781 -281.328125 206.09375 -290.015625 C 196.144531 -298.710938 180.550781 -303.0625 159.3125 -303.0625 L 123.9375 -303.0625 Z M 299.5625 -252.390625 C 299.5625 -212.921875 287.222656 -182.726562 262.546875 -161.8125 C 237.878906 -140.90625 202.800781 -130.453125 157.3125 -130.453125 L 123.9375 -130.453125 L 123.9375 0 L 46.15625 0 L 46.15625 -366.796875 L 163.328125 -366.796875 C 207.816406 -366.796875 241.644531 -357.21875 264.8125 -338.0625 C 287.976562 -318.914062 299.5625 -290.359375 299.5625 -252.390625 Z M 299.5625 -252.390625 "/></g></g></g></g></g></svg>